<svg width="276" height="54" viewBox="0 0 276 54" fill="none" xmlns="http://www.w3.org/2000/svg">
    <g>
        <path d="M4.36908 22.8922H24.6339C24.84 24.9846 25.0801 27.0229 25.2218 29.0678C25.3156 30.4943 24.2052 29.8052 23.5594 30.0073C23.4361 29.5911 23.3367 29.2642 23.2374 28.9365C22.2382 25.6801 21.5749 25.1335 18.1626 24.979C15.5647 24.8599 12.9651 24.7845 10.3647 24.7527C10.0243 24.7527 9.38952 25.1624 9.384 25.3887C9.31316 29.0678 9.31316 32.7524 9.31316 36.7118C12.4255 36.5628 15.4091 36.4734 18.3807 36.2648C19.4847 36.1884 19.8656 35.1306 19.9244 34.2442C20.0183 32.907 20.6411 32.717 21.7865 33.0029V42.3044C20.723 42.5651 20.0661 42.5121 19.9603 41.1153C19.8361 39.4988 19.1903 38.8805 17.5048 38.8032C14.8276 38.6849 12.1376 38.7734 9.36008 38.7734C9.36008 42.0372 9.24968 45.2348 9.40148 48.4259C9.4898 50.2091 10.5174 50.9103 12.661 51.1012C13.248 51.1478 13.7825 51.1012 14.4219 51.1012V52.6339H0V51.1301H1.22176C3.50612 50.9755 4.36356 50.0611 4.36356 47.6894V31.7188L4.36908 22.8922ZM115.872 42.4292C115.872 44.8838 115.796 47.1838 115.902 49.5201C115.954 50.7082 116.853 51.3033 118.039 51.4038C118.691 51.469 119.537 51.4755 119.119 52.6581H108.62L108.373 52.3248C108.69 52.0519 108.96 51.6236 109.318 51.5342C112.02 50.8451 112.149 50.7148 112.149 47.9212V28.9486C115.919 29.1981 119.583 29.2819 123.201 29.7457C125.55 30.0427 127.258 31.445 127.605 34.0607C127.992 36.9967 126.935 39.2073 124.381 40.6702C123.894 40.943 123.382 41.1749 122.725 41.5138C123.494 42.6126 124.21 43.636 124.921 44.6705C126.095 46.3634 127.27 48.046 128.38 49.764C128.656 50.2366 129.042 50.6333 129.505 50.9192C129.968 51.2052 130.493 51.3716 131.034 51.4038C131.909 51.4755 131.909 51.523 131.962 52.7168C130.059 52.7168 128.162 52.7531 126.265 52.6814C125.949 52.6814 125.573 52.2363 125.356 51.9085C123.654 49.318 121.927 46.7377 120.335 44.0755C119.606 42.8566 118.826 42.1321 117.358 42.418C116.864 42.4671 116.367 42.4709 115.872 42.4292ZM115.872 41.0557C118.702 41.0557 121.574 41.5027 123.159 38.5657C124.234 36.5749 124.293 34.4052 122.837 32.4973C121.515 30.7495 118.362 30.0129 115.872 30.7914V41.0557Z" fill="#fff"/>
        <path d="M203.522 53.4122C198.959 53.3005 195.16 51.7249 192.511 47.8904C188.049 41.4187 191.172 32.0511 198.783 29.5071C204.12 27.7248 209.312 28.0992 213.463 32.4496C219.747 39.0293 216.4 50.4464 207.592 52.7055C206.258 53.05 204.86 53.1804 203.522 53.4131L203.522 53.4122ZM212.494 41.8051C212.365 40.5443 212.277 39.2723 212.095 38.019C211.979 37.3274 211.804 36.6473 211.572 35.9862C211.08 34.3559 210.091 32.9244 208.748 31.8957C207.405 30.867 205.775 30.2934 204.091 30.2567C199.364 30.1673 196.845 31.647 195.459 35.6417C194.684 37.6807 194.427 39.8837 194.71 42.0494C194.993 44.2151 195.808 46.2744 197.08 48.0393C199.987 52.1998 205.823 53.0267 209.458 49.7927C211.813 47.7004 212.559 44.9078 212.494 41.8051ZM241.633 42.0603C243.512 42.0603 245.244 42.0305 246.97 42.0957C247.253 42.0957 247.522 42.5296 247.964 42.9039C245.314 43.6954 245.314 43.6954 245.309 46.2561V51.8432C242.132 52.5863 238.85 53.5016 235.449 53.2344C230.54 52.8479 226.206 51.1187 223.746 46.5597C220.715 40.9252 222.618 33.4302 229.523 30.1729C233.083 28.4856 236.817 28.4614 240.599 28.8004C241.756 28.9335 242.902 29.1505 244.029 29.4485C244.305 29.5071 244.71 29.7986 244.739 30.0425C244.962 31.8257 245.104 33.6089 245.267 35.3912C244.399 35.8251 244.023 35.5048 243.724 34.6789C242.608 31.5939 240.787 30.2921 237.516 30.3042C236.141 30.2781 234.765 30.3734 233.406 30.5891C232.019 30.7911 230.719 31.3919 229.661 32.3202C228.602 33.2484 227.829 34.465 227.433 35.8251C226.823 37.5606 226.566 39.403 226.677 41.2416C226.788 43.0802 227.266 44.8771 228.08 46.5243C228.73 47.9383 229.741 49.1512 231.009 50.0381C232.276 50.9251 233.754 51.454 235.291 51.5704C236.931 51.6635 238.578 51.5955 240.206 51.3683C241.21 51.2733 241.662 50.5898 241.644 49.5255C241.603 47.5048 241.644 45.4777 241.644 43.4514L241.633 42.0603ZM161.482 52.563V51.5704C161.583 51.4996 161.694 51.4437 161.811 51.4037C162.363 51.3031 162.933 51.2491 163.473 51.1122C164.647 50.8273 165.422 50.2565 165.428 48.8839C165.463 41.9839 165.539 35.0765 165.593 28.1765V25.288H174.02L174.137 26.4761C173.732 26.518 173.397 26.5711 173.068 26.5832C170.684 26.708 169.884 27.493 169.879 29.9168C169.856 35.8614 169.856 41.8051 169.879 47.7488C169.879 49.8765 170.267 50.4408 172.422 50.5889C174.791 50.7258 177.166 50.7146 179.533 50.5535C181.53 50.4408 182.469 48.9193 183.191 47.2432C183.293 46.8637 183.46 46.5054 183.685 46.1854C183.978 45.8896 184.37 45.7175 184.783 45.704C184.965 45.704 185.289 46.3874 185.229 46.691C184.838 48.4849 184.401 50.2684 183.92 52.0397C183.76 52.4047 183.429 52.6636 183.04 52.7287C175.951 52.7585 168.863 52.7287 161.776 52.7287C161.693 52.6933 161.617 52.6226 161.481 52.563H161.482Z" fill="#FC9628"/>
        <path d="M136.031 52.2765C136.336 52.0447 136.619 51.6405 136.965 51.6061C139.396 51.35 139.749 51.2541 139.831 48.7166C139.995 43.5812 140.042 38.4346 139.831 33.2992C139.719 30.4694 139.437 30.4815 136.137 30.1369C136.612 29.6853 136.882 29.2095 137.153 29.2039C142.438 29.162 147.764 29.1741 153.067 29.2039C153.32 29.2039 153.573 29.2039 153.9 29.2504C154.066 31.0877 154.218 32.8587 154.382 34.7015H153.085C152.838 33.9706 152.638 33.2629 152.362 32.5794C152.177 32.0787 151.849 31.6454 151.419 31.3352C150.989 31.0249 150.477 30.8518 149.949 30.8381C147.87 30.7608 145.79 30.8381 143.606 30.8381V39.5278C145.498 39.5278 147.359 39.5632 149.215 39.5278C150.178 39.5278 150.665 38.8853 150.806 37.929C150.923 37.0788 151.299 36.5443 152.298 36.9717V44.2535H151.17C151.025 43.8511 150.906 43.4399 150.812 43.0225C150.797 42.7906 150.736 42.564 150.633 42.3565C150.53 42.1489 150.386 41.9647 150.21 41.8148C150.035 41.6649 149.831 41.5525 149.612 41.4844C149.392 41.4162 149.161 41.3936 148.933 41.4181H143.501V50.1078C143.501 50.8919 143.765 51.2187 144.57 51.201C146.695 51.1656 148.833 51.2429 150.959 51.1591C153.084 51.0762 153.942 49.4178 154.593 47.6951C154.91 46.844 155.304 46.4399 156.356 46.8683C155.868 48.8051 155.38 50.7606 154.87 52.7766H136.336L136.031 52.2765ZM43.572 29.2337H53.0792L53.3148 29.5661C52.9909 29.8399 52.7269 30.2496 52.3396 30.3576C50.1132 30.9815 49.9319 31.0281 49.7912 33.3281C49.609 36.4372 49.6504 39.5576 49.5152 42.6724C49.4029 45.3355 48.8923 47.9261 47.1664 50.0361C44.6355 53.0969 41.1938 53.46 37.5708 53.1742C37.0979 53.1266 36.6299 53.0371 36.1724 52.9069C31.14 51.647 29.9422 48.7939 29.772 45.1149C29.5254 39.9319 29.7076 34.7313 29.714 29.5428C29.714 29.4655 29.7784 29.3883 29.8428 29.2449H36.5496L36.8486 29.4888C36.5662 29.7747 36.3316 30.2198 35.9967 30.3148C33.3655 31.0644 33.3544 31.0467 33.3489 33.7918C33.3489 37.049 33.2781 40.3305 33.3949 43.5579C33.4464 44.9109 33.7261 46.2462 34.2229 47.5042C35.3508 50.3276 38.1513 51.593 41.7108 51.1116C43.0955 50.9058 44.3767 50.2504 45.3616 49.244C46.3465 48.2375 46.9818 46.9345 47.1719 45.5311C47.8178 41.2319 47.9061 36.8665 47.436 32.544C47.3191 31.2841 46.6024 30.6658 45.3218 30.4582C44.6934 30.3511 43.3374 30.8921 43.572 29.2337ZM82.1292 29.2393H88.9767L89.2711 29.4953C88.9887 29.7747 88.7532 30.2198 88.4247 30.3036C86.0346 30.8977 85.776 30.8977 85.7236 33.3169C85.5556 37.4336 85.685 41.5573 86.1109 45.6549C86.616 49.727 89.0761 51.2662 93.4746 51.1181C95.0394 51.105 96.5399 50.486 97.668 49.3883C98.7962 48.2906 99.4664 46.7975 99.5411 45.2154C99.876 41.0549 99.8226 36.8945 99.8171 32.734C99.8171 31.2013 99.1887 30.7375 97.6321 30.488C97.1215 30.4042 96.6164 30.2915 95.6946 30.1071C96.1113 29.6909 96.3698 29.1974 96.6339 29.1918C99.6709 29.1036 102.71 29.1987 105.736 29.4767C105.478 29.7505 105.261 30.2142 104.954 30.2794C102.194 30.8735 102.248 31.3502 102.02 34.2443C101.825 36.7343 102.06 39.2606 101.937 41.7626C101.866 43.4198 101.616 45.0641 101.192 46.6662C99.9818 51.0706 96.8694 52.8957 92.8996 53.204C91.302 53.2905 89.7006 53.1342 88.1487 52.7402C84.408 51.8426 82.2764 49.4653 82.165 45.6074C82.0178 40.2113 82.1292 34.7965 82.1292 29.2393ZM65.1763 30.7673H56.3682V29.2868H77.7251L78.0545 34.5823C77.1382 35.0638 76.7803 34.8086 76.5043 33.9231C75.7112 31.3316 74.9541 30.8148 72.264 30.7906H68.929C68.8931 31.1947 68.8407 31.5281 68.8407 31.8605V47.968C68.8407 50.7792 69.6448 51.3612 71.7764 51.4804C72.3174 51.5102 73.3505 51.4329 72.8574 52.6695H61.4466C61.259 51.6945 61.259 51.6945 62.0925 51.4804C65.0871 50.7848 65.1699 50.6954 65.1754 47.5462C65.1809 42.0243 65.1754 36.4903 65.1754 30.7664L65.1763 30.7673Z" fill="#fff"/>
        <path fill-rule="evenodd" clip-rule="evenodd" d="M270.925 27.3734C270.114 27.3735 269.319 27.6018 268.628 28.0326L265.126 24.4886C266.032 23.2622 266.521 21.772 266.521 20.2406C266.521 18.5953 265.959 17.0007 264.93 15.727C263.901 14.4532 262.469 13.5785 260.876 13.2512L261.382 7.39969C261.982 7.27938 262.536 6.989 262.98 6.56236C263.423 6.13573 263.738 5.59039 263.887 4.98984C264.036 4.38929 264.013 3.75824 263.821 3.17017C263.63 2.58211 263.277 2.06121 262.805 1.66814C262.332 1.27506 261.759 1.02599 261.151 0.949907C260.544 0.873827 259.928 0.973873 259.375 1.2384C258.822 1.50292 258.354 1.92104 258.027 2.44407C257.7 2.9671 257.526 3.57352 257.525 4.19273C257.525 5.59601 258.399 6.78884 259.626 7.25257L259.119 13.1273C257.785 13.1945 256.497 13.6443 255.406 14.4242C254.316 15.204 253.466 16.2818 252.958 17.5318L251.024 17.0075C250.985 16.3286 250.692 15.6903 250.204 15.2229C249.716 14.7556 249.07 14.4946 248.398 14.4934C247.697 14.4934 247.025 14.7752 246.529 15.2768C246.034 15.7784 245.755 16.4588 245.755 17.1682C245.755 17.8776 246.034 18.5579 246.529 19.0595C247.025 19.5612 247.697 19.843 248.398 19.843C249.282 19.843 250.062 19.3988 250.542 18.7228L252.503 19.2535C252.459 19.5776 252.428 19.9054 252.428 20.2406C252.428 22.1323 253.17 23.9466 254.492 25.2842C255.813 26.6219 257.606 27.3734 259.475 27.3734C261.09 27.3749 262.657 26.8121 263.909 25.7801L267.339 29.2506C266.807 30.0033 266.521 30.9055 266.521 31.8309C266.521 32.7125 266.78 33.5743 267.263 34.3074C267.747 35.0404 268.435 35.6117 269.24 35.9491C270.045 36.2865 270.93 36.3748 271.784 36.2028C272.639 36.0308 273.423 35.6063 274.039 34.9829C274.655 34.3595 275.075 33.5652 275.245 32.7005C275.415 31.8359 275.327 30.9396 274.994 30.1251C274.661 29.3106 274.096 28.6144 273.372 28.1246C272.648 27.6348 271.796 27.3734 270.925 27.3734Z" fill="#FC9628"/>
    </g>
</svg>
